<?xml version="1.0" encoding="UTF-8"?>
<svg xmlns="http://www.w3.org/2000/svg" viewBox="0 0 100 100">
  <rect width="100" height="100" rx="18" fill="#49267a"/>
  <path d="M50,18 C58,18 64,22 68,28 C72,32 74,38 76,44 C78,50 80,58 78,66 C76,72 72,78 66,82 C62,86 58,90 56,96 C54,100 50,100 46,100 C42,98 40,90 38,84 C34,82 30,78 28,72 C26,66 24,60 26,54 C28,48 32,42 36,38 C38,32 42,26 46,22 C48,20 50,18 50,18 Z" fill="none" stroke="#e62b67" stroke-width="4"/>
  <path d="M82,32 L84,42 L94,44 L84,46 L82,56 L80,46 L70,44 L80,42 Z" fill="#f8c501"/>
</svg>
